<?xml version="1.0" standalone="no"?>
<!DOCTYPE svg PUBLIC "-//W3C//DTD SVG 20010904//EN"
 "http://www.w3.org/TR/2001/REC-SVG-20010904/DTD/svg10.dtd">
<svg version="1.0" xmlns="http://www.w3.org/2000/svg"
 width="435.000000pt" height="435.000000pt" viewBox="0 0 435.000000 435.000000"
 preserveAspectRatio="xMidYMid meet">
<metadata>
Created by potrace 1.11, written by Peter Selinger 2001-2013
</metadata>
<g transform="translate(0.000000,435.000000) scale(0.100000,-0.100000)"
fill="#000000" stroke="none">
<path d="M1110 3343 c-41 -8 -104 -28 -139 -45 l-63 -31 5 -56 c8 -67 30 -137
57 -171 19 -25 21 -25 167 -25 l148 0 5 -75 c3 -41 13 -91 21 -110 8 -19 14
-51 13 -70 -5 -64 -4 -165 0 -188 14 -68 8 -138 -16 -188 l-24 -50 24 -36 c22
-34 23 -38 8 -60 -9 -14 -16 -35 -16 -49 0 -13 -1 -100 -3 -193 l-3 -169 -40
-12 c-53 -16 -84 -33 -137 -78 l-46 -38 16 -45 c10 -31 26 -52 51 -69 32 -22
48 -25 124 -25 l88 0 -1 -32 c0 -18 -4 -54 -8 -80 l-8 -48 40 0 c28 0 48 -7
65 -22 l24 -23 18 23 c23 28 38 28 67 0 l23 -21 26 29 c14 16 36 40 48 54 39
44 56 76 64 121 7 43 8 44 56 52 29 5 60 4 77 -2 24 -8 33 -6 58 16 28 25 38
27 141 30 62 1 137 9 168 17 31 8 75 15 97 15 22 0 56 5 75 12 19 6 67 13 105
14 39 2 82 8 96 13 15 6 36 8 48 5 35 -9 91 7 113 33 18 20 31 24 75 24 38 0
55 4 59 15 4 8 17 15 29 15 13 0 39 9 57 19 18 11 55 25 81 32 26 6 53 20 60
30 7 9 31 25 54 34 26 10 43 25 47 38 3 12 23 45 43 72 21 28 47 78 59 113 20
60 20 64 3 101 -9 21 -22 42 -28 45 -6 4 -11 14 -11 23 0 9 -7 24 -15 33 -8 9
-16 38 -18 64 -2 40 -7 49 -35 66 -18 11 -32 26 -32 34 0 7 -45 59 -100 114
-61 61 -100 108 -100 121 0 27 -37 51 -79 51 -21 0 -40 7 -50 19 -28 33 -193
151 -210 151 -21 0 -141 61 -183 93 -41 30 -151 77 -198 83 -19 3 -46 9 -60
14 -14 6 -35 11 -47 13 -11 2 -27 8 -35 14 -7 6 -28 18 -46 27 -18 9 -38 28
-44 42 -10 22 -16 24 -53 18 -30 -4 -73 2 -145 20 -62 16 -131 26 -173 26 -49
0 -76 5 -87 15 -14 13 -26 14 -61 6 -29 -7 -45 -7 -47 0 -6 14 -253 9 -342 -8z
m656 -342 c6 -1 22 -12 35 -24 17 -17 41 -26 78 -30 29 -4 59 -11 65 -16 7 -6
24 -8 39 -6 20 4 30 -1 42 -19 19 -28 63 -46 114 -46 21 0 41 -4 47 -9 8 -7
114 -66 209 -115 15 -8 37 -29 50 -48 18 -26 36 -37 83 -50 51 -15 61 -22 70
-48 8 -22 25 -37 66 -57 49 -24 57 -32 73 -75 13 -36 22 -48 37 -48 12 0 34
-16 50 -38 17 -20 43 -53 59 -74 19 -24 30 -52 34 -81 4 -45 3 -47 -44 -81
-26 -20 -54 -36 -61 -36 -7 0 -28 -11 -47 -25 -27 -21 -40 -25 -72 -19 -34 5
-40 3 -52 -19 -16 -30 -49 -40 -96 -31 -23 4 -47 -1 -81 -16 -89 -39 -128 -49
-214 -50 -118 -2 -129 -4 -179 -26 -34 -16 -62 -19 -140 -18 -53 2 -124 -3
-158 -11 -64 -13 -80 -6 -51 23 10 10 10 17 -1 35 -8 12 -13 41 -12 65 1 25
-4 51 -13 64 -14 19 -13 24 9 52 22 29 23 33 9 71 -13 37 -12 45 8 99 15 40
18 61 11 63 -17 6 -5 235 13 249 12 9 12 19 -1 60 -8 27 -15 66 -15 88 0 21
-5 56 -11 77 -9 29 -9 42 0 53 9 11 8 22 -8 51 -18 33 -18 38 -4 55 9 10 23
16 32 15 9 -2 21 -4 27 -4z"/>
</g>
</svg>
