<?xml version="1.0" encoding="utf-8"?>
<!-- Generator: Adobe Illustrator 23.0.6, SVG Export Plug-In . SVG Version: 6.00 Build 0)  -->
<svg version="1.1" id="Layer_1" xmlns="http://www.w3.org/2000/svg" xmlns:xlink="http://www.w3.org/1999/xlink" x="0px" y="0px"
	 viewBox="0 0 397.7 295" style="enable-background:new 0 0 397.7 295;" xml:space="preserve">
<style type="text/css">
	.st0{fill:#45902F;}
	.st1{font-family:'Galvji-Bold';}
	.st2{font-size:88px;}
	.st3{fill:#FFFFFF;}
</style>
<title>bicycle-riderv2</title>
<text transform="matrix(1 0 0 1 0 254.71)" class="st0 st1 st2">Re</text>
<text transform="matrix(1 0 0 1 114 254.71)" class="st3 st1 st2">-cycle</text>
<path class="st3" d="M269.3,62.9c-7.2,0-14.1,1.5-20.4,4.1l-15.1-29.2h21c2.3,0,4.1,1.9,4.1,4.1c0,2.3-1.9,4.1-4.1,4.1h-4.5
	c-2.4,0-4.3,6.6-4.3,8.9c0,2.4,1.9-0.4,4.3-0.4h4.5c7,0,12.7-5.7,12.7-12.7s-5.7-12.7-12.7-12.7h-28.1c-1.5,0-2.9,0.8-3.7,2.1
	c-0.8,1.3-0.8,2.9-0.1,4.2l7.5,14.5h-61.7l-6.2-12.2h9.8c2.4,0,4.3-1.9,4.3-4.3s-1.9-4.3-4.3-4.3h-28.1c-2.4,0-4.3,1.9-4.3,4.3
	s1.9,4.3,4.3,4.3h8.6l8.3,16.3l-9.8,15.1c-7.5-4-16-6.3-25.1-6.3C97,62.9,73.2,86.8,73.2,116s23.8,53.1,53.1,53.1
	c27.8,0,50.7-21.5,52.9-48.8h12.6l-4.9,15.9h-2.8c-2.4,0-4.3,1.9-4.3,4.3s1.9,4.3,4.3,4.3h15.4c2.4,0,4.3-1.9,4.3-4.3
	s-1.9-4.3-4.3-4.3h-3.6l5.6-18.3l35.6-54.9l4.1,8c-15,9.4-25.1,26.1-25.1,45.1c0,29.3,23.8,53.1,53.1,53.1
	c29.3,0,53.1-23.8,53.1-53.1C322.3,86.8,298.5,62.9,269.3,62.9z M165.7,62.9l24.9,48.8h-11.4c-1.2-15.4-9.1-28.9-20.6-37.8
	L165.7,62.9z M170.6,111.8h-36.5l19.8-30.6C163.2,88.5,169.5,99.4,170.6,111.8z M126.3,160.6c-24.6,0-44.5-20-44.5-44.5
	c0-24.6,20-44.5,44.5-44.5c7.4,0,14.3,1.8,20.4,5l-24,37.2c-0.8,1.3-0.9,3-0.2,4.4c0.7,1.4,2.2,2.2,3.8,2.2h44.3
	C168.5,142.9,149.4,160.6,126.3,160.6z M198,107.5l-24.9-48.9h56.6L198,107.5z M269.3,160.6c-24.6,0-44.5-20-44.5-44.5
	c0-15.7,8.2-29.5,20.4-37.4l20.3,39.4c0.8,1.5,2.3,2.3,3.8,2.3c0.7,0,1.3-0.2,2-0.5c2.1-1.1,2.9-3.7,1.8-5.8l-20.3-39.4
	c5.1-2,10.7-3.2,16.5-3.2c24.6,0,44.5,20,44.5,44.5C313.8,140.6,293.8,160.6,269.3,160.6z"/>
</svg>
